<?xml version="1.0" standalone="no"?>
<!DOCTYPE svg PUBLIC "-//W3C//DTD SVG 20010904//EN"
 "http://www.w3.org/TR/2001/REC-SVG-20010904/DTD/svg10.dtd">
<svg version="1.0" xmlns="http://www.w3.org/2000/svg"
 width="2281.000000pt" height="948.000000pt" viewBox="0 0 2281.000000 948.000000"
 preserveAspectRatio="xMidYMid meet">

<g transform="translate(0.000000,948.000000) scale(0.100000,-0.100000)"
fill="#000000" stroke="none">
<path d="M15690 4555 l0 -2425 2860 0 2860 0 0 2425 0 2425 -2860 0 -2860 0 0
-2425z m1659 1324 c232 -37 427 -197 540 -441 62 -134 76 -208 75 -393 -1
-143 -3 -169 -27 -248 -82 -268 -265 -470 -491 -543 -71 -23 -99 -26 -231 -28
l-150 -1 -3 88 -3 87 -209 0 -210 0 0 200 0 200 325 0 c358 0 364 1 424 61 99
98 104 270 13 371 -69 77 -75 78 -439 78 l-323 0 0 -130 0 -130 -85 0 -85 0 0
420 0 420 408 0 c234 0 434 -5 471 -11z m1761 -822 c631 -728 676 -777 690
-760 57 70 1362 1573 1370 1578 7 4 10 -443 10 -1314 0 -727 -2 -1321 -5
-1321 -3 0 -115 55 -250 122 l-245 123 -2 504 -3 504 -440 -509 c-242 -280
-445 -509 -451 -509 -6 0 -90 91 -188 203 l-176 204 0 117 0 118 -520 599
-520 599 0 290 1 290 27 -30 c15 -17 331 -381 702 -808z m-2770 258 l0 -415
85 0 85 0 0 -325 0 -325 210 0 210 0 0 -90 0 -90 -210 0 -210 0 -2 -417 -3
-418 -250 0 -250 0 -3 1248 -2 1247 170 0 170 0 0 -415z m2435 -705 l515 -595
0 -112 c0 -62 -3 -113 -7 -113 -5 0 -125 135 -268 300 l-260 300 -3 -575 -2
-575 -255 0 -255 0 0 986 c0 651 3 985 10 982 5 -1 242 -271 525 -598z"/>
<path d="M2600 5655 l0 -235 180 0 180 0 0 -360 0 -360 65 0 65 0 0 595 0 595
-245 0 -245 0 0 -235z"/>
<path d="M3480 5660 l0 -225 600 -600 600 -600 0 -155 1 -155 334 -340 334
-340 1 1277 0 1278 -245 -122 -245 -123 0 -522 c0 -288 -4 -523 -8 -523 -4 0
-66 60 -137 133 -71 72 -378 382 -682 687 l-553 556 0 -226z"/>
<path d="M6252 5875 c-34 -8 -97 -30 -140 -51 -63 -30 -95 -55 -178 -138 -87
-87 -107 -114 -147 -196 -47 -94 -78 -197 -91 -297 l-7 -53 191 0 190 0 0 -39
c0 -149 79 -292 195 -355 38 -20 57 -21 400 -27 248 -4 372 -10 400 -19 91
-29 161 -73 241 -154 112 -113 169 -231 199 -408 l6 -38 54 0 c63 0 61 -7 40
115 -53 300 -267 548 -531 615 -69 18 -112 20 -398 20 -359 0 -373 3 -430 71
-46 55 -58 94 -54 179 4 90 32 142 100 187 l42 28 392 3 392 3 148 172 c82 95
193 223 247 285 l98 112 -648 -1 c-507 0 -662 -4 -711 -14z"/>
<path d="M9699 5871 c-424 -92 -769 -452 -889 -926 -165 -652 117 -1338 655
-1596 404 -193 847 -118 1180 202 94 91 154 166 217 271 39 66 118 238 118
258 0 6 -54 10 -137 10 l-138 0 -34 -63 c-117 -216 -309 -385 -511 -452 -84
-27 -181 -45 -252 -45 l-48 0 0 145 0 145 -25 0 c-47 0 -176 48 -240 90 -121
79 -238 228 -286 366 -31 88 -49 195 -49 294 0 217 72 405 211 554 124 133
265 196 437 196 154 0 266 -39 377 -131 26 -22 52 -36 56 -32 29 29 308 420
306 428 -2 6 -41 41 -88 78 -99 80 -266 167 -384 198 -116 31 -356 36 -476 10z"/>
<path d="M11370 4515 l0 -1275 248 2 247 3 3 493 2 492 400 0 400 0 0 150 0
150 -320 0 -320 0 0 135 0 135 -80 0 -80 0 -2 493 -3 492 -247 3 -248 2 0
-1275z"/>
<path d="M12760 5295 l0 -495 -320 0 -320 0 0 -80 0 -80 320 0 320 0 0 -569 0
-569 246 -126 c135 -69 248 -126 250 -126 2 0 4 572 4 1270 l0 1270 -250 0
-250 0 0 -495z"/>
<path d="M13527 5783 c-4 -3 -7 -132 -7 -285 l0 -278 360 0 360 0 0 -990 0
-990 245 0 245 0 0 705 0 704 -122 3 -123 3 -3 423 -2 422 -270 0 -270 0 0
145 0 145 -203 0 c-112 0 -207 -3 -210 -7z"/>
<path d="M14037 5783 c-4 -3 -7 -44 -7 -90 l0 -83 273 -2 272 -3 3 -422 2
-423 75 0 75 0 0 230 0 230 261 2 261 3 94 275 c52 150 94 278 94 282 0 10
-1394 11 -1403 1z"/>
<path d="M7930 5600 l0 -180 180 0 180 0 0 -390 0 -390 70 0 70 0 0 570 0 570
-250 0 -250 0 0 -180z"/>
<path d="M7930 4405 l0 -915 240 -120 c132 -66 244 -120 250 -120 7 0 9 213 8
643 l-3 642 -112 3 -113 3 0 389 0 390 -135 0 -135 0 0 -915z"/>
<path d="M3480 4273 l0 -1033 245 0 245 0 0 697 0 698 310 -310 310 -310 0 85
-1 85 -554 560 -554 560 -1 -1032z"/>
<path d="M2460 4375 l0 -885 240 -120 c132 -66 244 -120 250 -120 7 0 10 218
10 645 l0 645 -70 0 -70 0 0 360 0 360 -180 0 -180 0 0 -885z"/>
<path d="M5695 4978 c38 -320 224 -567 505 -671 50 -19 85 -21 415 -26 393 -7
388 -6 447 -68 114 -119 61 -351 -89 -392 -24 -7 -234 -11 -585 -11 l-548 0 0
-285 0 -285 573 0 c633 0 653 2 782 63 223 107 386 350 419 630 l7 57 -100 0
-101 0 0 55 c0 197 -99 393 -250 494 -108 72 -121 73 -525 80 -352 6 -361 7
-408 30 -62 31 -137 98 -176 159 -36 56 -71 152 -71 194 l0 28 -150 0 -151 0
6 -52z"/>
<path d="M10186 4508 c-53 -156 -96 -286 -96 -290 0 -5 90 -8 201 -8 l201 0
-27 -47 c-101 -176 -273 -307 -440 -336 l-65 -11 0 -88 c0 -102 -4 -99 110
-72 218 51 427 225 532 444 l43 89 186 0 186 1 17 83 c15 77 28 210 40 425 l6
92 -399 0 -399 0 -96 -282z"/>
</g>
</svg>
