<svg xmlns="http://www.w3.org/2000/svg" width="41.224" height="54.727" viewBox="0 0 41.224 54.727">
  <g id="Group_364" data-name="Group 364" transform="translate(-157.617 -16.995)">
    <g id="Group_85" data-name="Group 85" transform="translate(-1635.036 -807.727)">
      <g id="Group_3" data-name="Group 3" transform="translate(1792.653 824.722)">
        <path id="Path_1" data-name="Path 1" d="M264.41,272.219v-3.448h3.712l2.369,1.948h7.7v10.266h.921V269.8h-8.055l-4.923-4.067v-5.37h11.148v8.2h3.435v24.323H272.1v-.974h6.976v-7.818l-2.053-2.409v-9.464Z" transform="translate(-264.41 -252.937)" fill="#fff"/>
        <path id="Path_2" data-name="Path 2" d="M274.92,254.72h10.569V264l-5.752,5.554v25.113H278.2v-25.14H274.92Z" transform="translate(-261.087 -254.72)" fill="#fff"/>
        <path id="Path_3" data-name="Path 3" d="M279.25,293.889h1.277V270.026l11.412-11.214V257.18h-6.871v6.278L279.25,269.5Z" transform="translate(-259.717 -253.942)" fill="#fff"/>
        <path id="Path_4" data-name="Path 4" d="M300.432,261.74H288.218L280.86,269.2v23.244h1.527V274.862h4.686l2.093-2.685h11.267Z" transform="translate(-259.208 -252.5)" fill="#fff"/>
        <path id="Path_5" data-name="Path 5" d="M295.72,274.7V270.22h-6.673l-1.987,2.711H282.65v16.834h8.845v-1.04H284.2V274.7Z" transform="translate(-258.642 -249.819)" fill="#fff"/>
      </g>
      <g id="Group_4" data-name="Group 4" transform="translate(1800.097 867.474)">
        <path id="Path_6" data-name="Path 6" d="M305.163,263.165h2.094s0-3.288-3.246-3.246a3.3,3.3,0,0,0-3.06,1.956,3.605,3.605,0,0,0-.114,2.658,2.9,2.9,0,0,0,1.908,1.836,2.13,2.13,0,0,0,.264.066c.552.114,2.868.7,2.268,2.358a1.418,1.418,0,0,1-1.83.906,1.434,1.434,0,0,1-.87-.63,2.011,2.011,0,0,1-.258-1.1h-1.98s-.15,3.6,3.312,3.792a3.649,3.649,0,0,0,3.936-3.468,3.09,3.09,0,0,0-2.49-3.432,8.019,8.019,0,0,1-1.44-.486c-.018-.012-.042-.018-.06-.03a1.388,1.388,0,0,1-.9-1.212,1.268,1.268,0,0,1,1.686-1.206c.012,0,.018.006.03.006a1.279,1.279,0,0,1,.75,1.236" transform="translate(-300.338 -259.906)" fill="#fff"/>
        <path id="Path_7" data-name="Path 7" d="M313.68,259.92v2.094h1.95v9.749h1.986v-9.677H319.6V259.92Z" transform="translate(-305.676 -259.907)" fill="#fff"/>
        <path id="Path_8" data-name="Path 8" d="M336.023,263.445h-2.6a3.143,3.143,0,0,0-2.112-1.2,3.692,3.692,0,0,0-3.516,1.326,3.784,3.784,0,0,0,.744,5.291,3.58,3.58,0,0,0,3.966.24,3.369,3.369,0,0,0,1.422-1.662h-4.547v-1.914h7.181a5.791,5.791,0,0,1-4.008,6.029,6.131,6.131,0,0,1-3.642.078c-1.752-.516-4.068-1.932-4.224-5.813a5.937,5.937,0,0,1,5.945-5.921c0,.012,4.05-.276,5.387,3.546" transform="translate(-310.081 -259.898)" fill="#fff"/>
        <path id="Path_9" data-name="Path 9" d="M348.318,273.14a1.908,1.908,0,1,0,1.908,1.908,1.9,1.9,0,0,0-1.908-1.908m0,3.594A1.686,1.686,0,1,1,350,275.048a1.687,1.687,0,0,1-1.686,1.686" transform="translate(-318.77 -265.196)" fill="#fff"/>
        <path id="Path_10" data-name="Path 10" d="M349.8,276.1a.574.574,0,0,0-.33-.378v-.006a.573.573,0,0,0,.342-.192.527.527,0,0,0,.126-.36.613.613,0,0,0-.1-.342.448.448,0,0,0-.252-.2,1.426,1.426,0,0,0-.4-.048h-.924v2.088h.276v-.894h.51a.435.435,0,0,1,.282.1.5.5,0,0,1,.174.24l.2.558h.3Zm-.642-.576h-.618v-.72h.66c.3,0,.45.12.45.354a.319.319,0,0,1-.114.282.63.63,0,0,1-.378.084" transform="translate(-319.514 -265.772)" fill="#fff"/>
      </g>
    </g>
  </g>
</svg>
